<svg width="24" height="24" viewBox="0 0 24 24" fill="none" xmlns="http://www.w3.org/2000/svg">
<path d="M16.5574 23.5822C14.6492 23.5707 13.1053 22.021 13.1111 20.107V16.5624C13.1053 14.6542 14.6434 13.0987 16.5574 13.0871H20.0789C21.9871 13.0987 23.531 14.6484 23.5252 16.5624V20.107C23.531 22.0152 21.9929 23.5707 20.0789 23.5822H16.5574ZM14.7302 16.5624V20.107C14.7302 21.1247 15.5455 21.9516 16.5574 21.9574H20.0789C21.0908 21.9458 21.9062 21.1189 21.9004 20.107V16.5624C21.9004 15.5447 21.0851 14.7178 20.0731 14.712H16.5574C15.5397 14.7178 14.7244 15.5504 14.7302 16.5624ZM3.80718 23.5822C1.89898 23.5707 0.355074 22.021 0.360856 20.107V16.5624C0.355074 14.6542 1.8932 13.0987 3.80718 13.0871H7.32867C9.23687 13.0987 10.7808 14.6484 10.775 16.5624V20.107C10.7808 22.0152 9.24265 23.5707 7.32867 23.5822H3.80718ZM1.97993 16.5624V20.107C1.97993 21.1247 2.79526 21.9516 3.80718 21.9574H7.32867C8.34638 21.9516 9.1617 21.1189 9.15592 20.107V16.5624C9.15592 15.5447 8.3406 14.7178 7.32867 14.712H3.80718C2.78947 14.7178 1.97415 15.5504 1.97993 16.5624ZM16.5632 10.9014C14.655 10.8898 13.1111 9.34013 13.1169 7.42614V3.89308C13.1111 1.98488 14.6492 0.429412 16.5632 0.417847H20.0847C21.9929 0.423629 23.5368 1.9791 23.531 3.89308V7.43771C23.5368 9.34591 21.9987 10.9014 20.0847 10.9129H16.5632V10.9014ZM14.736 3.88152V7.42614C14.736 8.44385 15.5513 9.27074 16.5632 9.27652H20.0847C21.1024 9.27074 21.9177 8.43807 21.9119 7.42614V3.89308C21.9119 2.87538 21.0966 2.04849 20.0847 2.04271H16.5632C15.5455 2.04849 14.7302 2.88116 14.736 3.89308V3.88152ZM3.81296 10.9014C1.90476 10.8956 0.360853 9.34013 0.366635 7.42614V3.89308C0.360853 1.98488 1.89898 0.429412 3.81296 0.417847H7.33446C9.24266 0.429412 10.7866 1.9791 10.7808 3.89308V7.43771C10.7866 9.34591 9.24844 10.9014 7.33446 10.9129H3.81874L3.81296 10.9014ZM1.97993 3.88152V7.42614C1.97993 8.44385 2.79526 9.27074 3.80718 9.27652H7.32867C8.34638 9.27074 9.1617 8.43807 9.15592 7.42614V3.89308C9.15592 2.87538 8.3406 2.04849 7.32867 2.04271H3.80718C2.78947 2.04849 1.97415 2.88116 1.97993 3.89308V3.88152Z" fill="#BDBDBD"/>
</svg>
